<?xml version="1.0" encoding="UTF-8" standalone="no"?>
<!-- Created with Inkscape (http://www.inkscape.org/) -->

<svg
   xmlns:dc="http://purl.org/dc/elements/1.1/"
   xmlns:cc="http://creativecommons.org/ns#"
   xmlns:rdf="http://www.w3.org/1999/02/22-rdf-syntax-ns#"
   xmlns:svg="http://www.w3.org/2000/svg"
   xmlns="http://www.w3.org/2000/svg"
   xmlns:xlink="http://www.w3.org/1999/xlink"
   xmlns:sodipodi="http://sodipodi.sourceforge.net/DTD/sodipodi-0.dtd"
   xmlns:inkscape="http://www.inkscape.org/namespaces/inkscape"
   width="87.499619mm"
   height="126.68233mm"
   viewBox="0 0 310.03802 448.87441"
   id="svg2"
   version="1.1"
   inkscape:version="0.92.3 (2405546, 2018-03-11)"
   sodipodi:docname="SVG2.svg"
   inkscape:export-filename="/Users/Saulo/Desktop/logo3.png"
   inkscape:export-xdpi="90"
   inkscape:export-ydpi="90">
  <defs
     id="defs4">
    <linearGradient
       inkscape:collect="always"
       id="linearGradient7394">
      <stop
         style="stop-color:#c3915a;stop-opacity:1"
         offset="0"
         id="stop7390" />
      <stop
         style="stop-color:#c3915a;stop-opacity:0"
         offset="1"
         id="stop7392" />
    </linearGradient>
    <linearGradient
       inkscape:collect="always"
       id="linearGradient7388">
      <stop
         style="stop-color:#c3915a;stop-opacity:1"
         offset="0"
         id="stop7384" />
      <stop
         style="stop-color:#a08c32;stop-opacity:0;"
         offset="1"
         id="stop7386" />
    </linearGradient>
    <linearGradient
       inkscape:collect="always"
       id="linearGradient4836">
      <stop
         style="stop-color:#000000;stop-opacity:1;"
         offset="0"
         id="stop4838" />
      <stop
         style="stop-color:#000000;stop-opacity:0"
         offset="1"
         id="stop4840" />
    </linearGradient>
    <linearGradient
       inkscape:collect="always"
       xlink:href="#linearGradient4836"
       id="linearGradient5108"
       gradientUnits="userSpaceOnUse"
       x1="3590"
       y1="893.74023"
       x2="3590"
       y2="714.95447" />
    <linearGradient
       inkscape:collect="always"
       xlink:href="#linearGradient7394"
       id="linearGradient5049-6-8-8-3"
       x1="3648.4761"
       y1="756.6424"
       x2="3693.8555"
       y2="702.92413"
       gradientUnits="userSpaceOnUse"
       gradientTransform="translate(1618.6708,3893.5853)" />
    <linearGradient
       gradientTransform="translate(1041.3084,1342.2332)"
       inkscape:collect="always"
       xlink:href="#linearGradient7388"
       id="linearGradient6120-2-1"
       x1="4225.8384"
       y1="3307.9944"
       x2="4247.751"
       y2="3281.9805"
       gradientUnits="userSpaceOnUse" />
    <linearGradient
       inkscape:collect="always"
       xlink:href="#linearGradient7382"
       id="linearGradient5049-6-8-5-8-3"
       x1="3648.4761"
       y1="756.6424"
       x2="3693.8555"
       y2="702.92413"
       gradientUnits="userSpaceOnUse"
       gradientTransform="rotate(180,4534.0136,2691.6302)" />
    <linearGradient
       inkscape:collect="always"
       id="linearGradient7382">
      <stop
         style="stop-color:#c3915a;stop-opacity:1"
         offset="0"
         id="stop7378" />
      <stop
         style="stop-color:#c3915a;stop-opacity:0.24279836"
         offset="1"
         id="stop7380" />
    </linearGradient>
    <linearGradient
       gradientTransform="rotate(180,4822.6947,3967.3062)"
       inkscape:collect="always"
       xlink:href="#linearGradient7388"
       id="linearGradient6120-7-9-6"
       x1="4225.8384"
       y1="3307.9944"
       x2="4247.751"
       y2="3281.9805"
       gradientUnits="userSpaceOnUse" />
  </defs>
  <sodipodi:namedview
     id="base"
     pagecolor="#ffffff"
     bordercolor="#666666"
     borderopacity="1.0"
     inkscape:pageopacity="0.0"
     inkscape:pageshadow="2"
     inkscape:zoom="0.66770777"
     inkscape:cx="74.821804"
     inkscape:cy="-79.302222"
     inkscape:document-units="px"
     inkscape:current-layer="layer1"
     showgrid="false"
     inkscape:window-width="1920"
     inkscape:window-height="1017"
     inkscape:window-x="-8"
     inkscape:window-y="-8"
     inkscape:window-maximized="1"
     showguides="true">
    <inkscape:grid
       type="xygrid"
       id="grid4394"
       originx="-5188.3303"
       originy="3810.498" />
  </sodipodi:namedview>
  <metadata
     id="metadata7">
    <rdf:RDF>
      <cc:Work
         rdf:about="">
        <dc:format>image/svg+xml</dc:format>
        <dc:type
           rdf:resource="http://purl.org/dc/dcmitype/StillImage" />
        <dc:title></dc:title>
      </cc:Work>
    </rdf:RDF>
  </metadata>
  <g
     inkscape:label="Capa 1"
     inkscape:groupmode="layer"
     id="layer1"
     transform="translate(-5188.3302,-4413.9856)">
    <g
       id="g4656" />
    <path
       inkscape:connector-curvature="0"
       style="fill:#ffffff;fill-opacity:1;fill-rule:evenodd;stroke:#ffffff;stroke-width:3;stroke-linecap:butt;stroke-linejoin:miter;stroke-miterlimit:10;stroke-dasharray:none;stroke-opacity:1"
       d="m 5339.7355,4715.8615 c 92.3043,76.2436 10.8406,137.4005 -42.0496,145.2627 221.3103,6.8571 242.4358,-137.3465 140.4161,-222.7015 -45.2193,-39.6775 -73.877,-63.1793 -91.1403,-77.4388 -92.3042,-76.2436 -10.8406,-137.4004 42.0496,-145.2626 -221.3102,-6.8571 -242.4357,137.3464 -140.416,222.7014 45.2192,39.6775 73.8769,63.1793 91.1402,77.4388 z"
       id="path4265-3-3-2-1-3-8-5-7-8-8"
       sodipodi:nodetypes="sccsccs"
       inkscape:export-filename="/Users/Saulo/Desktop/Dorado 6.png"
       inkscape:export-xdpi="90"
       inkscape:export-ydpi="90" />
    <path
       inkscape:connector-curvature="0"
       style="fill:none;fill-opacity:0;fill-rule:evenodd;stroke:#c3915a;stroke-width:2;stroke-linecap:butt;stroke-linejoin:miter;stroke-miterlimit:10;stroke-dasharray:none;stroke-opacity:1"
       d="m 5339.9275,4450.0744 c 4.7813,-3.8233 9.9977,-7.173 5.565,-17.6383 h 7.2629 c 0.5876,11.4418 -10.8586,17.0931 -12.8279,17.6383 z"
       id="path4269-6-8-6-69-2-9-2"
       inkscape:export-filename="/Users/Saulo/Desktop/Dorado 6.png"
       inkscape:export-xdpi="90"
       inkscape:export-ydpi="90" />
    <path
       inkscape:connector-curvature="0"
       style="fill:none;fill-opacity:0;fill-rule:evenodd;stroke:#c3915a;stroke-width:2;stroke-linecap:butt;stroke-linejoin:miter;stroke-miterlimit:10;stroke-dasharray:none;stroke-opacity:1"
       d="m 5329.9275,4450.0744 c 3.8671,-3.0923 8.0189,-5.8748 7.1198,-12.3629 3.8115,-2.9182 1.0471,-0.735 5.7239,-3.9865 -0.2909,10.5782 -10.9498,15.825 -12.8437,16.3494 z"
       id="path4267-0-3-51-83-4-9-0"
       inkscape:export-filename="/Users/Saulo/Desktop/Dorado 6.png"
       inkscape:export-xdpi="90"
       inkscape:export-ydpi="90" />
    <path
       style="color:#000000;font-style:normal;font-variant:normal;font-weight:normal;font-stretch:normal;font-size:medium;line-height:normal;font-family:sans-serif;text-indent:0;text-align:start;text-decoration:none;text-decoration-line:none;text-decoration-style:solid;text-decoration-color:#000000;letter-spacing:normal;word-spacing:normal;text-transform:none;writing-mode:lr-tb;direction:ltr;baseline-shift:baseline;text-anchor:start;white-space:normal;clip-rule:nonzero;display:inline;overflow:visible;visibility:visible;opacity:1;isolation:auto;mix-blend-mode:normal;color-interpolation:sRGB;color-interpolation-filters:linearRGB;solid-color:#000000;solid-opacity:1;fill:none;fill-opacity:0;fill-rule:evenodd;stroke:#c3915a;stroke-width:3.77814436;stroke-linecap:butt;stroke-linejoin:miter;stroke-miterlimit:10;stroke-dasharray:none;stroke-dashoffset:0;stroke-opacity:1;color-rendering:auto;image-rendering:auto;shape-rendering:auto;text-rendering:auto;enable-background:accumulate"
       d="m 5321.4121,4456.4451 -2.2521,2.5448 h 61.7531 v -2.5448 z"
       id="path4261-0-9-3-0-8-88-1"
       inkscape:connector-curvature="0"
       sodipodi:nodetypes="ccccc"
       inkscape:export-filename="/Users/Saulo/Desktop/Dorado 6.png"
       inkscape:export-xdpi="90"
       inkscape:export-ydpi="90" />
    <path
       inkscape:connector-curvature="0"
       style="fill:none;fill-opacity:0;fill-rule:evenodd;stroke:#c3915a;stroke-width:3;stroke-linecap:butt;stroke-linejoin:miter;stroke-miterlimit:10;stroke-dasharray:none;stroke-opacity:1"
       d="m 5310.1051,4468.4744 h 73.453"
       id="path4259-8-0-9-3-5-8-2"
       inkscape:export-filename="/Users/Saulo/Desktop/Dorado 6.png"
       inkscape:export-xdpi="90"
       inkscape:export-ydpi="90" />
    <path
       inkscape:connector-curvature="0"
       style="fill:none;fill-opacity:0;fill-rule:evenodd;stroke:#c3915a;stroke-width:3;stroke-linecap:butt;stroke-linejoin:miter;stroke-miterlimit:10;stroke-dasharray:none;stroke-opacity:1"
       d="m 5412.8968,4457.8826 h -15.6143"
       id="path4255-5-9-24-6-1-2-3"
       inkscape:export-filename="/Users/Saulo/Desktop/Dorado 6.png"
       inkscape:export-xdpi="90"
       inkscape:export-ydpi="90" />
    <path
       inkscape:connector-curvature="0"
       style="fill:none;fill-opacity:0;fill-rule:evenodd;stroke:#c3915a;stroke-width:3;stroke-linecap:butt;stroke-linejoin:miter;stroke-miterlimit:10;stroke-dasharray:none;stroke-opacity:1"
       d="m 5415.4858,4463.3343 h -18.636"
       id="path4253-4-0-9-1-1-2-4"
       inkscape:export-filename="/Users/Saulo/Desktop/Dorado 6.png"
       inkscape:export-xdpi="90"
       inkscape:export-ydpi="90" />
    <path
       inkscape:connector-curvature="0"
       style="fill:none;fill-opacity:0;fill-rule:evenodd;stroke:#c3915a;stroke-width:3;stroke-linecap:butt;stroke-linejoin:miter;stroke-miterlimit:10;stroke-dasharray:none;stroke-opacity:1"
       d="m 5415.8343,4477.9647 h -28"
       id="path4251-8-1-2-8-8-9-1"
       inkscape:export-filename="/Users/Saulo/Desktop/Dorado 6.png"
       inkscape:export-xdpi="90"
       inkscape:export-ydpi="90" />
    <path
       inkscape:connector-curvature="0"
       style="fill:none;fill-opacity:0;fill-rule:evenodd;stroke:#c3915a;stroke-width:3;stroke-linecap:butt;stroke-linejoin:miter;stroke-miterlimit:10;stroke-dasharray:none;stroke-opacity:1"
       d="m 5410.8822,4445.8818 h -25"
       id="path4249-4-7-8-33-4-5-2"
       inkscape:export-filename="/Users/Saulo/Desktop/Dorado 6.png"
       inkscape:export-xdpi="90"
       inkscape:export-ydpi="90" />
    <path
       style="fill:none;fill-opacity:0;fill-rule:evenodd;stroke:#c3915a;stroke-width:2.38488197;stroke-linecap:butt;stroke-linejoin:miter;stroke-miterlimit:10;stroke-dasharray:none;stroke-opacity:1"
       d="m 5396.5659,4601.1916 v -113.455 l 1.926,1.5772 v 115"
       id="path4247-2-8-02-0-0-9-9"
       inkscape:connector-curvature="0"
       sodipodi:nodetypes="cccc"
       inkscape:export-filename="/Users/Saulo/Desktop/Dorado 6.png"
       inkscape:export-xdpi="90"
       inkscape:export-ydpi="90" />
    <path
       style="fill:none;fill-opacity:0;fill-rule:evenodd;stroke:#c3915a;stroke-width:3;stroke-linecap:butt;stroke-linejoin:miter;stroke-miterlimit:10;stroke-dasharray:none;stroke-opacity:1"
       d="m 5321.4757,4534.6944 v -45.6525 c 0.9096,-12.4673 -14.6674,-5.8403 -14.4711,-1.8652 0.4818,-1.575 7.9668,-3.7419 7.836,3.2402 h 6e-4 v 34.3374"
       id="path4243-8-6-1-1-8-6-7"
       inkscape:connector-curvature="0"
       inkscape:export-filename="/Users/Saulo/Desktop/Dorado 6.png"
       inkscape:export-xdpi="90"
       inkscape:export-ydpi="90" />
    <path
       style="fill:none;fill-opacity:0;fill-rule:evenodd;stroke:#c3915a;stroke-width:3;stroke-linecap:butt;stroke-linejoin:miter;stroke-miterlimit:10;stroke-dasharray:none;stroke-opacity:1"
       d="m 5338.425,4553.7334 v -63.8171 c 0.9066,-13.7899 -14.6158,-6.6057 -14.4203,-2.209 0.4802,-1.742 7.939,-4.1388 7.8086,3.584 h 5e-4 v 55.5449"
       id="path4241-6-0-8-9-5-1-0"
       inkscape:connector-curvature="0"
       inkscape:export-filename="/Users/Saulo/Desktop/Dorado 6.png"
       inkscape:export-xdpi="90"
       inkscape:export-ydpi="90" />
    <path
       style="fill:none;fill-opacity:0;fill-rule:evenodd;stroke:#c3915a;stroke-width:3;stroke-linecap:butt;stroke-linejoin:miter;stroke-miterlimit:10;stroke-dasharray:none;stroke-opacity:1"
       d="m 5355.4027,4567.6044 v -77.4175 c 0.9051,-14.389 -14.5934,-6.8274 -14.3981,-2.2396 0.4794,-1.8178 7.9266,-4.3187 7.7965,3.7396 h 5e-4 v 70.9823"
       id="path4239-9-0-5-52-6-6-5"
       inkscape:connector-curvature="0"
       inkscape:export-filename="/Users/Saulo/Desktop/Dorado 6.png"
       inkscape:export-xdpi="90"
       inkscape:export-ydpi="90" />
    <path
       style="fill:none;fill-opacity:0;fill-rule:evenodd;stroke:#c3915a;stroke-width:3;stroke-linecap:butt;stroke-linejoin:miter;stroke-miterlimit:10;stroke-dasharray:none;stroke-opacity:1"
       d="m 5372.3893,4581.4194 v -90.3922 c 0.9044,-14.7536 -14.5799,-8.5384 -14.3848,-3.8344 0.479,-1.8638 7.9194,-4.4281 7.7892,3.8344 h 7e-4 v 85.1076"
       id="path4237-9-3-3-2-1-4-4"
       inkscape:connector-curvature="0"
       inkscape:export-filename="/Users/Saulo/Desktop/Dorado 6.png"
       inkscape:export-xdpi="90"
       inkscape:export-ydpi="90" />
    <path
       style="fill:none;fill-opacity:0;fill-rule:evenodd;stroke:#c3915a;stroke-width:3;stroke-linecap:butt;stroke-linejoin:miter;stroke-miterlimit:10;stroke-dasharray:none;stroke-opacity:1"
       d="M 5389.3813,4596.3614 V 4491.873 c 0.9038,-14.9735 -14.5719,-8.6657 -14.3769,-3.8916 0.4787,-1.8916 7.915,-4.494 7.785,3.8916 h 5e-4 v 98.5971"
       id="path4235-5-4-4-4-7-4-3"
       inkscape:connector-curvature="0"
       inkscape:export-filename="/Users/Saulo/Desktop/Dorado 6.png"
       inkscape:export-xdpi="90"
       inkscape:export-ydpi="90" />
    <path
       style="color:#000000;font-style:normal;font-variant:normal;font-weight:normal;font-stretch:normal;font-size:medium;line-height:normal;font-family:sans-serif;text-indent:0;text-align:start;text-decoration:none;text-decoration-line:none;text-decoration-style:solid;text-decoration-color:#000000;letter-spacing:normal;word-spacing:normal;text-transform:none;writing-mode:lr-tb;direction:ltr;baseline-shift:baseline;text-anchor:start;white-space:normal;clip-rule:nonzero;display:inline;overflow:visible;visibility:visible;opacity:1;isolation:auto;mix-blend-mode:normal;color-interpolation:sRGB;color-interpolation-filters:linearRGB;solid-color:#000000;solid-opacity:1;fill:#c3915a;fill-opacity:1;fill-rule:evenodd;stroke:none;stroke-width:3;stroke-linecap:butt;stroke-linejoin:miter;stroke-miterlimit:10;stroke-dasharray:none;stroke-dashoffset:0;stroke-opacity:1;color-rendering:auto;image-rendering:auto;shape-rendering:auto;text-rendering:auto;enable-background:accumulate"
       d="m 5407.1094,4414.0829 c -6.0961,-0.1508 -12.1765,0.1387 -18.0977,0.1387 v 3 c 12.0165,0 24.1701,-1.0624 35.4043,2.2344 19.5925,6.8673 31.1243,28.8304 24.0742,48.6425 -6.2742,17.6319 -26.1269,28.0011 -43.9589,21.5137 -15.6501,-5.6935 -24.8402,-23.4172 -18.92,-39.2559 5.1096,-13.6696 20.7094,-21.6873 34.5528,-16.3339 11.6916,4.5211 18.5345,18 13.748,29.8457 -3.9261,9.7165 -15.2867,15.3952 -25.1308,11.1757 -7.7461,-3.3202 -12.2691,-12.5727 -8.6172,-20.4082 2.6951,-5.7828 9.8535,-9.1668 15.666,-6.0859 1.9148,1.015 3.496,2.8571 4.2226,4.875 0.7267,2.018 0.6501,4.1261 -0.5976,6.0039 -0.6224,0.9367 -1.8608,1.8346 -3.0391,2.1406 -1.1783,0.306 -2.1243,0.168 -2.9316,-0.7421 0.048,0.054 -0.3108,-0.868 -0.2656,-1.2715 0.023,-0.2018 0.095,-0.206 -0.043,-0.086 -0.138,0.12 -0.4085,0.082 -0.1836,0.1465 l 0.8242,-2.8848 c -0.873,-0.2493 -1.9315,-0.1148 -2.6094,0.4747 -0.6778,0.5894 -0.8963,1.3514 -0.9707,2.0156 -0.1488,1.3284 0.07,2.5448 1.0039,3.5976 1.5948,1.7979 3.9642,2.1628 5.9297,1.6524 1.9655,-0.5105 3.6975,-1.7489 4.7832,-3.3828 1.8076,-2.7205 1.912,-5.93 0.9219,-8.6797 -0.9901,-2.7497 -3.0226,-5.1251 -5.6387,-6.5117 -7.4861,-3.9681 -16.4257,0.2501 -19.791,7.4707 -4.4257,9.4959 0.9428,20.4852 10.1543,24.4336 11.4951,4.9271 24.5692,-1.6081 29.0957,-12.8106 5.4508,-13.4897 -2.256,-28.6638 -15.4492,-33.7656 -15.4822,-5.9871 -32.7699,2.8967 -38.4453,18.0801 -6.5314,17.4735 3.5317,36.8773 20.7051,43.125 19.4639,7.081 40.9914,-4.1631 47.8105,-23.3262 7.6343,-21.4539 -4.7927,-45.1062 -25.9453,-52.4961 l -0.035,-0.012 -0.037,-0.012 c -5.9824,-1.7607 -12.0933,-2.3511 -18.1894,-2.502 z"
       id="path4231-9-2-8-9-0-0-9"
       inkscape:connector-curvature="0"
       inkscape:export-filename="/Users/Saulo/Desktop/Dorado 6.png"
       inkscape:export-xdpi="90"
       inkscape:export-ydpi="90" />
    <path
       inkscape:connector-curvature="0"
       style="fill:none;fill-opacity:0;fill-rule:evenodd;stroke:#c3915a;stroke-width:2;stroke-linecap:butt;stroke-linejoin:miter;stroke-miterlimit:10;stroke-dasharray:none;stroke-opacity:1"
       d="m 5386.6315,4445.9576 c -2.8427,2.5145 -5.7912,3.8641 -6.704,4.1168 4.7814,-3.8233 9.9977,-7.173 5.5651,-17.6383 h 7.2629 c 0.084,1.6342 -0.1001,3.4818 -0.4442,4.8818"
       id="path4229-3-6-3-9-7-5-0"
       inkscape:export-filename="/Users/Saulo/Desktop/Dorado 6.png"
       inkscape:export-xdpi="90"
       inkscape:export-ydpi="90" />
    <path
       inkscape:connector-curvature="0"
       style="fill:none;fill-opacity:0;fill-rule:evenodd;stroke:#c3915a;stroke-width:2;stroke-linecap:butt;stroke-linejoin:miter;stroke-miterlimit:10;stroke-dasharray:none;stroke-opacity:1"
       d="m 5369.9275,4450.0744 c 4.7813,-3.8233 9.9977,-7.173 5.5651,-17.6383 h 7.2628 c 0.5876,11.4418 -10.8585,17.0931 -12.8279,17.6383 z"
       id="path4227-1-8-28-25-4-0-8"
       inkscape:export-filename="/Users/Saulo/Desktop/Dorado 6.png"
       inkscape:export-xdpi="90"
       inkscape:export-ydpi="90" />
    <path
       inkscape:connector-curvature="0"
       style="fill:none;fill-opacity:0;fill-rule:evenodd;stroke:#c3915a;stroke-width:2;stroke-linecap:butt;stroke-linejoin:miter;stroke-miterlimit:10;stroke-dasharray:none;stroke-opacity:1"
       d="m 5359.9275,4450.0744 c 4.7813,-3.8233 9.9977,-7.173 5.5651,-17.6383 h 7.2628 c 0.5876,11.4418 -10.8585,17.0931 -12.8279,17.6383 z"
       id="path4225-8-1-31-9-9-8-5"
       inkscape:export-filename="/Users/Saulo/Desktop/Dorado 6.png"
       inkscape:export-xdpi="90"
       inkscape:export-ydpi="90" />
    <path
       inkscape:connector-curvature="0"
       style="fill:none;fill-opacity:0;fill-rule:evenodd;stroke:#c3915a;stroke-width:2;stroke-linecap:butt;stroke-linejoin:miter;stroke-miterlimit:10;stroke-dasharray:none;stroke-opacity:1"
       d="m 5349.9275,4450.0744 c 4.7813,-3.8233 9.9977,-7.173 5.565,-17.6383 h 7.2629 c 0.5876,11.4418 -10.8586,17.0931 -12.8279,17.6383 z"
       id="path4223-0-9-8-90-3-3-7"
       inkscape:export-filename="/Users/Saulo/Desktop/Dorado 6.png"
       inkscape:export-xdpi="90"
       inkscape:export-ydpi="90" />
    <path
       inkscape:connector-curvature="0"
       style="fill:none;fill-opacity:0;fill-rule:evenodd;stroke:#c3915a;stroke-width:3;stroke-linecap:butt;stroke-linejoin:miter;stroke-miterlimit:10;stroke-dasharray:none;stroke-opacity:1"
       d="m 5409.852,4430.3615 h -61.2598 l -2.5711,1.6982 h 57.5532"
       id="path4221-9-4-1-4-6-0-0"
       inkscape:export-filename="/Users/Saulo/Desktop/Dorado 6.png"
       inkscape:export-xdpi="90"
       inkscape:export-ydpi="90" />
    <path
       inkscape:connector-curvature="0"
       style="fill:none;fill-opacity:0;fill-rule:evenodd;stroke:#c3915a;stroke-width:5.95238161;stroke-linecap:butt;stroke-linejoin:miter;stroke-miterlimit:10;stroke-dasharray:none;stroke-opacity:1"
       d="m 5308.0211,4474.2995 h 77.8138"
       id="path4219-1-5-76-4-5-3-9"
       inkscape:export-filename="/Users/Saulo/Desktop/Dorado 6.png"
       inkscape:export-xdpi="90"
       inkscape:export-ydpi="90" />
    <path
       inkscape:connector-curvature="0"
       style="fill:url(#linearGradient5049-6-8-8-3);fill-opacity:1;fill-rule:evenodd;stroke:url(#linearGradient6120-2-1);stroke-width:3;stroke-linecap:butt;stroke-linejoin:miter;stroke-miterlimit:10;stroke-dasharray:none;stroke-opacity:1"
       d="m 5346.9625,4560.9839 c -92.3042,-76.2436 -10.8406,-137.4005 42.0496,-145.2627 -221.3102,-6.8571 -242.4357,137.3465 -140.416,222.7015 45.2192,39.6775 73.8769,63.1793 91.1402,77.4388 92.3043,76.2436 10.8406,137.4004 -42.0496,145.2626 221.3103,6.8571 242.4358,-137.3464 140.4161,-222.7014 -45.2193,-39.6775 -73.877,-63.1793 -91.1403,-77.4388 z"
       id="path4265-3-3-2-1-3-8-57-8"
       sodipodi:nodetypes="sccsccs"
       inkscape:export-filename="/Users/Saulo/Desktop/Dorado 6.png"
       inkscape:export-xdpi="90"
       inkscape:export-ydpi="90" />
    <path
       inkscape:connector-curvature="0"
       style="fill:none;fill-opacity:0;fill-rule:evenodd;stroke:#c3915a;stroke-width:2;stroke-linecap:butt;stroke-linejoin:miter;stroke-miterlimit:10;stroke-dasharray:none;stroke-opacity:1"
       d="m 5346.7711,4826.7707 c -4.7813,3.8233 -9.9977,7.173 -5.565,17.6384 h -7.2629 c -0.5876,-11.4419 10.8586,-17.0932 12.8279,-17.6384 z"
       id="path4269-6-8-5-1-07-1-5-0" />
    <path
       inkscape:connector-curvature="0"
       style="fill:none;fill-opacity:0;fill-rule:evenodd;stroke:#c3915a;stroke-width:2;stroke-linecap:butt;stroke-linejoin:miter;stroke-miterlimit:10;stroke-dasharray:none;stroke-opacity:1"
       d="m 5356.7711,4826.7707 c -3.8671,3.0923 -8.0189,5.8748 -7.1198,12.3629 -3.8115,2.9182 -1.0471,0.735 -5.7239,3.9865 0.2909,-10.5782 10.9498,-15.825 12.8437,-16.3494 z"
       id="path4267-0-3-2-86-2-2-2-0" />
    <path
       style="color:#000000;font-style:normal;font-variant:normal;font-weight:normal;font-stretch:normal;font-size:medium;line-height:normal;font-family:sans-serif;text-indent:0;text-align:start;text-decoration:none;text-decoration-line:none;text-decoration-style:solid;text-decoration-color:#000000;letter-spacing:normal;word-spacing:normal;text-transform:none;writing-mode:lr-tb;direction:ltr;baseline-shift:baseline;text-anchor:start;white-space:normal;clip-rule:nonzero;display:inline;overflow:visible;visibility:visible;opacity:1;isolation:auto;mix-blend-mode:normal;color-interpolation:sRGB;color-interpolation-filters:linearRGB;solid-color:#000000;solid-opacity:1;fill:none;fill-opacity:0;fill-rule:evenodd;stroke:#c3915a;stroke-width:3.77814436;stroke-linecap:butt;stroke-linejoin:miter;stroke-miterlimit:10;stroke-dasharray:none;stroke-dashoffset:0;stroke-opacity:1;color-rendering:auto;image-rendering:auto;shape-rendering:auto;text-rendering:auto;enable-background:accumulate"
       d="m 5365.2865,4820.4 2.2521,-2.5448 h -61.7531 v 2.5448 z"
       id="path4261-0-9-7-7-19-5-8-1"
       inkscape:connector-curvature="0"
       sodipodi:nodetypes="ccccc" />
    <path
       inkscape:connector-curvature="0"
       style="fill:none;fill-opacity:0;fill-rule:evenodd;stroke:#c3915a;stroke-width:3;stroke-linecap:butt;stroke-linejoin:miter;stroke-miterlimit:10;stroke-dasharray:none;stroke-opacity:1"
       d="m 5376.5935,4808.3707 h -73.453"
       id="path4259-8-0-4-4-8-1-7-2" />
    <path
       inkscape:connector-curvature="0"
       style="fill:none;fill-opacity:0;fill-rule:evenodd;stroke:#c3915a;stroke-width:3;stroke-linecap:butt;stroke-linejoin:miter;stroke-miterlimit:10;stroke-dasharray:none;stroke-opacity:1"
       d="m 5273.8018,4818.9625 h 15.6143"
       id="path4255-5-9-7-0-5-5-62-7" />
    <path
       inkscape:connector-curvature="0"
       style="fill:none;fill-opacity:0;fill-rule:evenodd;stroke:#c3915a;stroke-width:3;stroke-linecap:butt;stroke-linejoin:miter;stroke-miterlimit:10;stroke-dasharray:none;stroke-opacity:1"
       d="m 5271.2128,4813.5108 h 18.636"
       id="path4253-4-0-7-7-2-7-5-3" />
    <path
       inkscape:connector-curvature="0"
       style="fill:none;fill-opacity:0;fill-rule:evenodd;stroke:#c3915a;stroke-width:3;stroke-linecap:butt;stroke-linejoin:miter;stroke-miterlimit:10;stroke-dasharray:none;stroke-opacity:1"
       d="m 5270.8643,4798.8804 h 28"
       id="path4251-8-1-5-8-3-8-5-0" />
    <path
       inkscape:connector-curvature="0"
       style="fill:none;fill-opacity:0;fill-rule:evenodd;stroke:#c3915a;stroke-width:3;stroke-linecap:butt;stroke-linejoin:miter;stroke-miterlimit:10;stroke-dasharray:none;stroke-opacity:1"
       d="m 5275.8164,4830.9633 h 25"
       id="path4249-4-7-7-2-3-5-6-7" />
    <path
       style="fill:none;fill-opacity:0;fill-rule:evenodd;stroke:#c3915a;stroke-width:2.38488173;stroke-linecap:butt;stroke-linejoin:miter;stroke-miterlimit:10;stroke-dasharray:none;stroke-opacity:1"
       d="m 5290.1327,4675.6535 v 113.455 l -1.926,-1.5772 v -115"
       id="path4247-2-8-6-7-87-1-9-8"
       inkscape:connector-curvature="0"
       sodipodi:nodetypes="cccc" />
    <path
       style="fill:none;fill-opacity:0;fill-rule:evenodd;stroke:#c3915a;stroke-width:3;stroke-linecap:butt;stroke-linejoin:miter;stroke-miterlimit:10;stroke-dasharray:none;stroke-opacity:1"
       d="m 5365.2229,4742.1507 v 45.6525 c -0.9096,12.4673 14.6674,5.8403 14.4711,1.8652 -0.4818,1.575 -7.9668,3.7419 -7.836,-3.2402 h -6e-4 v -34.3374"
       id="path4243-8-6-0-22-5-7-6-2"
       inkscape:connector-curvature="0" />
    <path
       style="fill:none;fill-opacity:0;fill-rule:evenodd;stroke:#c3915a;stroke-width:3;stroke-linecap:butt;stroke-linejoin:miter;stroke-miterlimit:10;stroke-dasharray:none;stroke-opacity:1"
       d="m 5348.2736,4723.1117 v 63.8171 c -0.9066,13.7899 14.6158,6.6057 14.4203,2.209 -0.4802,1.742 -7.939,4.1388 -7.8086,-3.584 h -5e-4 v -55.5449"
       id="path4241-6-0-5-6-1-4-5-2"
       inkscape:connector-curvature="0" />
    <path
       style="fill:none;fill-opacity:0;fill-rule:evenodd;stroke:#c3915a;stroke-width:3;stroke-linecap:butt;stroke-linejoin:miter;stroke-miterlimit:10;stroke-dasharray:none;stroke-opacity:1"
       d="m 5331.2959,4709.2407 v 77.4175 c -0.9051,14.389 14.5934,6.8274 14.3981,2.2396 -0.4794,1.8178 -7.9266,4.3187 -7.7965,-3.7396 h -5e-4 v -70.9823"
       id="path4239-9-0-0-6-6-8-5-7"
       inkscape:connector-curvature="0" />
    <path
       style="fill:none;fill-opacity:0;fill-rule:evenodd;stroke:#c3915a;stroke-width:3;stroke-linecap:butt;stroke-linejoin:miter;stroke-miterlimit:10;stroke-dasharray:none;stroke-opacity:1"
       d="m 5314.3093,4695.4257 v 90.3922 c -0.9044,14.7536 14.5799,8.5384 14.3848,3.8344 -0.479,1.8638 -7.9194,4.4281 -7.7892,-3.8344 h -7e-4 v -85.1076"
       id="path4237-9-3-6-0-41-1-9-0"
       inkscape:connector-curvature="0" />
    <path
       style="fill:none;fill-opacity:0;fill-rule:evenodd;stroke:#c3915a;stroke-width:3;stroke-linecap:butt;stroke-linejoin:miter;stroke-miterlimit:10;stroke-dasharray:none;stroke-opacity:1"
       d="m 5297.3173,4680.4837 v 104.4885 c -0.9038,14.9734 14.5719,8.6656 14.3769,3.8916 -0.4787,1.8915 -7.915,4.4939 -7.785,-3.8916 h -5e-4 v -98.5972"
       id="path4235-5-4-7-87-0-8-37-2"
       inkscape:connector-curvature="0" />
    <path
       inkscape:connector-curvature="0"
       style="fill:none;fill-opacity:0;fill-rule:evenodd;stroke:#c3915a;stroke-width:3;stroke-linecap:butt;stroke-linejoin:miter;stroke-miterlimit:10;stroke-dasharray:none;stroke-opacity:1"
       d="m 5273.294,4818.672 c 2.1959,0.6273 1.9291,-2.6506 1.0428,-3.6499 -2.402,-2.708 -6.6345,-1.0064 -8.3426,1.5643 -3.0553,4.5982 -0.3596,10.6335 4.1713,13.0351 6.6493,3.5245 14.6977,-0.2766 17.7279,-6.7783 4.0388,-8.6657 -0.9066,-18.7863 -9.3854,-22.4205 -10.6696,-4.5734 -22.8869,1.5329 -27.1132,11.9924 -5.1186,12.6678 2.1571,26.9944 14.5995,31.8059 14.6628,5.6702 31.1061,-2.78 36.4986,-17.2065 6.2258,-16.6561 -3.4019,-35.2207 -19.8136,-41.1913 -18.648,-6.7841 -39.3373,4.0232 -45.884,22.4206 -7.3444,20.6392 4.644,43.4553 25.0277,50.5767 11.6044,3.4151 23.9289,2.3029 35.8645,2.3029"
       id="path4231-9-2-7-6-1-1-0-6"
       sodipodi:nodetypes="ccssssssssscc" />
    <path
       inkscape:connector-curvature="0"
       style="fill:none;fill-opacity:0;fill-rule:evenodd;stroke:#c3915a;stroke-width:2;stroke-linecap:butt;stroke-linejoin:miter;stroke-miterlimit:10;stroke-dasharray:none;stroke-opacity:1"
       d="m 5300.0671,4830.8876 c 2.8427,-2.5146 5.7912,-3.8642 6.704,-4.1169 -4.7814,3.8233 -9.9977,7.173 -5.5651,17.6384 h -7.2629 c -0.084,-1.6343 0.1001,-3.4819 0.4442,-4.8819"
       id="path4229-3-6-7-0-0-6-1-8" />
    <path
       inkscape:connector-curvature="0"
       style="fill:none;fill-opacity:0;fill-rule:evenodd;stroke:#c3915a;stroke-width:2;stroke-linecap:butt;stroke-linejoin:miter;stroke-miterlimit:10;stroke-dasharray:none;stroke-opacity:1"
       d="m 5316.7711,4826.7707 c -4.7813,3.8233 -9.9977,7.173 -5.5651,17.6384 h -7.2628 c -0.5876,-11.4419 10.8585,-17.0932 12.8279,-17.6384 z"
       id="path4227-1-8-9-4-2-6-4-3" />
    <path
       inkscape:connector-curvature="0"
       style="fill:none;fill-opacity:0;fill-rule:evenodd;stroke:#c3915a;stroke-width:2;stroke-linecap:butt;stroke-linejoin:miter;stroke-miterlimit:10;stroke-dasharray:none;stroke-opacity:1"
       d="m 5326.7711,4826.7707 c -4.7813,3.8233 -9.9977,7.173 -5.5651,17.6384 h -7.2628 c -0.5876,-11.4419 10.8585,-17.0932 12.8279,-17.6384 z"
       id="path4225-8-1-4-3-0-2-2-7" />
    <path
       inkscape:connector-curvature="0"
       style="fill:none;fill-opacity:0;fill-rule:evenodd;stroke:#c3915a;stroke-width:2;stroke-linecap:butt;stroke-linejoin:miter;stroke-miterlimit:10;stroke-dasharray:none;stroke-opacity:1"
       d="m 5336.7711,4826.7707 c -4.7813,3.8233 -9.9977,7.173 -5.565,17.6384 h -7.2629 c -0.5876,-11.4419 10.8586,-17.0932 12.8279,-17.6384 z"
       id="path4223-0-9-4-65-8-0-2-3" />
    <path
       inkscape:connector-curvature="0"
       style="fill:none;fill-opacity:0;fill-rule:evenodd;stroke:#c3915a;stroke-width:3;stroke-linecap:butt;stroke-linejoin:miter;stroke-miterlimit:10;stroke-dasharray:none;stroke-opacity:1"
       d="m 5276.8466,4846.4837 h 61.2598 l 2.5711,-1.6983 h -57.5532"
       id="path4221-9-4-9-8-78-9-0-0" />
    <path
       inkscape:connector-curvature="0"
       style="fill:none;fill-opacity:1;fill-rule:evenodd;stroke:#c3915a;stroke-width:5.95238113;stroke-linecap:butt;stroke-linejoin:miter;stroke-miterlimit:10;stroke-dasharray:none;stroke-opacity:1"
       d="m 5378.6775,4802.5456 h -77.8138"
       id="path4219-1-5-0-28-9-8-0-7" />
    <path
       inkscape:connector-curvature="0"
       style="fill:url(#linearGradient5049-6-8-5-8-3);fill-opacity:1;fill-rule:evenodd;stroke:url(#linearGradient6120-7-9-6);stroke-width:3;stroke-linecap:butt;stroke-linejoin:miter;stroke-miterlimit:10;stroke-dasharray:none;stroke-opacity:1"
       d="m 5339.7355,4715.8617 c 92.3043,76.2436 10.8406,137.4005 -42.0496,145.2627 221.3103,6.8571 242.4358,-137.3465 140.4161,-222.7015 -45.2193,-39.6775 -73.877,-63.1793 -91.1403,-77.4388 -92.3042,-76.2436 -10.8406,-137.4004 42.0496,-145.2626 -221.3102,-6.8571 -242.4357,137.3464 -140.416,222.7014 45.2192,39.6775 73.8769,63.1793 91.1402,77.4388 z"
       id="path4265-3-3-2-1-3-8-5-7-7"
       sodipodi:nodetypes="sccsccs"
       inkscape:export-filename="/Users/Saulo/Desktop/Dorado 6.png"
       inkscape:export-xdpi="90"
       inkscape:export-ydpi="90" />
  </g>
</svg>
